# xmcd CD database file
#
# Track frame offsets:
#	150
#	12581
#	23113
#	35866
#	45239
#	61347
#	79055
#	92442
#	113833
#	125673
#	137565
#	148310
#
# Disc length: 2251 seconds
#
# Revision: 0
# Processed by: cddbd v1.5.2PL0 Copyright (c) Steve Scherf et al.
# Submitted via: CDex 1.70beta2
#
DISCID=a208c90c
DTITLE=Bowes Brothers, The - OVM - First Day of School
DYEAR=1900
DGENRE=Country
TTITLE0=AudioTraCanadian Homeck 01
TTITLE1=St. Anne's Song and Reel
TTITLE2=The Old Log Cabin
TTITLE3=My Old Lasso(Yodel)
TTITLE4=To Be A Country Star
TTITLE5=He Wanted Us Arround
TTITLE6=Margo's Cargo
TTITLE7=Mike's Fries
TTITLE8=The White Cliffs of Dover
TTITLE9=The Auctioneer
TTITLE10=Why Me Lord
TTITLE11=The First Day of School
EXTD=
EXTT0=
EXTT1=
EXTT2=
EXTT3=
EXTT4=
EXTT5=
EXTT6=
EXTT7=
EXTT8=
EXTT9=
EXTT10=
EXTT11=
PLAYORDER=
